<?xml version="1.0" encoding="UTF-8"?><svg xmlns="http://www.w3.org/2000/svg" xmlns:xlink="http://www.w3.org/1999/xlink" height="111.2" preserveAspectRatio="xMidYMid meet" version="1.0" viewBox="50.9 38.0 85.7 111.2" width="85.7" zoomAndPan="magnify"><g stroke="#000"><g id="change1_1"><path d="m-614 234.36h104v136h-62l-42-44v-92z" fill="#fff" stroke-linecap="round" stroke-linejoin="round" stroke-width="3.75" transform="translate(541 -147) scale(.79582)"/></g><path d="m-613.75 325.52 42.22-6.2703-0.41802 51.416" fill="none" stroke-width="3.75" transform="translate(541 -147) scale(.79582)"/><path d="m-600 252.36h74" fill="none" stroke-width="2.775" transform="translate(541 -147) scale(.79582)"/><path d="m-600 264.36h74" fill="none" stroke-width="2.775" transform="translate(541 -147) scale(.79582)"/><path d="m-600 276.36h74" fill="none" stroke-width="2.775" transform="translate(541 -147) scale(.79582)"/><path d="m-600 288.36h74" fill="none" stroke-width="2.775" transform="translate(541 -147) scale(.79582)"/><path d="m-600 300.36h74" fill="none" stroke-width="2.775" transform="translate(541 -147) scale(.79582)"/><path d="m-600 312.36h74" fill="none" stroke-width="2.775" transform="translate(541 -147) scale(.79582)"/><path d="m-566 324.36h40" fill="none" stroke-width="2.775" transform="translate(541 -147) scale(.79582)"/><path d="m-566 336.36h40" fill="none" stroke-width="2.775" transform="translate(541 -147) scale(.79582)"/><path d="m-565.97 348.36h39.972" fill="none" stroke-width="2.775" transform="translate(541 -147) scale(.79582)"/></g></svg>